<ttFont>
<head>
    <!-- Most of this table will be recalculated by the compiler -->
    <tableVersion value="1.0"/>
    <fontRevision value="1.5"/>
    <checkSumAdjustment value="0xfe348aca"/>
    <magicNumber value="0x5f0f3cf5"/>
    <flags value="00000000 00001001"/>
    <unitsPerEm value="1000"/>
    <created value="Mon May 24 19:56:09 1999"/>
    <modified value="Fri Aug 29 13:33:24 2008"/>
    <xMin value="0"/>
    <yMin value="-200"/>
    <xMax value="1000"/>
    <yMax value="800"/>
    <macStyle value="00000000 00000000"/>
    <lowestRecPPEM value="3"/>
    <fontDirectionHint value="0"/>
    <indexToLocFormat value="0"/>
    <glyphDataFormat value="0"/>
  </head>
    <TTGlyph name=".notdef" xMin="125" yMin="0" xMax="875" yMax="800">
      <contour>
        <pt x="125" y="0" on="1"/>
        <pt x="125" y="800" on="1"/>
        <pt x="875" y="800" on="1"/>
        <pt x="875" y="0" on="1"/>
      </contour>
      <contour>
        <pt x="250" y="125" on="1"/>
        <pt x="750" y="125" on="1"/>
        <pt x="750" y="675" on="1"/>
        <pt x="250" y="675" on="1"/>
      </contour>
    </TTGlyph>
    <TTGlyph name="A" xMin="0" yMin="-200" xMax="1000" yMax="800">
      <contour>
        <pt x="0" y="800" on="1"/>
        <pt x="1000" y="800" on="1"/>
        <pt x="1000" y="-200" on="1"/>
        <pt x="0" y="-200" on="1"/>
      </contour>
    </TTGlyph>
    <TTGlyph name="AE" xMin="0" yMin="-200" xMax="1000" yMax="800">
      <contour>
        <pt x="0" y="800" on="1"/>
        <pt x="1000" y="800" on="1"/>
        <pt x="1000" y="-200" on="1"/>
        <pt x="0" y="-200" on="1"/>
      </contour>
    </TTGlyph>
    <TTGlyph name="Aacute" xMin="0" yMin="-200" xMax="1000" yMax="800">
      <contour>
        <pt x="0" y="800" on="1"/>
        <pt x="1000" y="800" on="1"/>
        <pt x="1000" y="-200" on="1"/>
        <pt x="0" y="-200" on="1"/>
      </contour>
    </TTGlyph>
    <TTGlyph name="Acircumflex" xMin="0" yMin="-200" xMax="1000" yMax="800">
      <contour>
        <pt x="0" y="800" on="1"/>
        <pt x="1000" y="800" on="1"/>
        <pt x="1000" y="-200" on="1"/>
        <pt x="0" y="-200" on="1"/>
      </contour>
    </TTGlyph>
    <TTGlyph name="Adieresis" xMin="0" yMin="-200" xMax="1000" yMax="800">
      <contour>
        <pt x="0" y="800" on="1"/>
        <pt x="1000" y="800" on="1"/>
        <pt x="1000" y="-200" on="1"/>
        <pt x="0" y="-200" on="1"/>
      </contour>
    </TTGlyph>
    <TTGlyph name="Agrave" xMin="0" yMin="-200" xMax="1000" yMax="800">
      <contour>
        <pt x="0" y="800" on="1"/>
        <pt x="1000" y="800" on="1"/>
        <pt x="1000" y="-200" on="1"/>
        <pt x="0" y="-200" on="1"/>
      </contour>
    </TTGlyph>
    <TTGlyph name="Aring" xMin="0" yMin="-200" xMax="1000" yMax="800">
      <contour>
        <pt x="0" y="800" on="1"/>
        <pt x="1000" y="800" on="1"/>
        <pt x="1000" y="-200" on="1"/>
        <pt x="0" y="-200" on="1"/>
      </contour>
    </TTGlyph>
    <TTGlyph name="Atilde" xMin="0" yMin="-200" xMax="1000" yMax="800">
      <contour>
        <pt x="0" y="800" on="1"/>
        <pt x="1000" y="800" on="1"/>
        <pt x="1000" y="-200" on="1"/>
        <pt x="0" y="-200" on="1"/>
      </contour>
    </TTGlyph>
    <TTGlyph name="B" xMin="0" yMin="-200" xMax="1000" yMax="800">
      <contour>
        <pt x="0" y="800" on="1"/>
        <pt x="1000" y="800" on="1"/>
        <pt x="1000" y="-200" on="1"/>
        <pt x="0" y="-200" on="1"/>
      </contour>
    </TTGlyph>
    <TTGlyph name="C" xMin="0" yMin="-200" xMax="1000" yMax="800">
      <contour>
        <pt x="0" y="800" on="1"/>
        <pt x="1000" y="800" on="1"/>
        <pt x="1000" y="-200" on="1"/>
        <pt x="0" y="-200" on="1"/>
      </contour>
    </TTGlyph>
    <TTGlyph name="Ccedilla" xMin="0" yMin="-200" xMax="1000" yMax="800">
      <contour>
        <pt x="0" y="800" on="1"/>
        <pt x="1000" y="800" on="1"/>
        <pt x="1000" y="-200" on="1"/>
        <pt x="0" y="-200" on="1"/>
      </contour>
    </TTGlyph>
    <TTGlyph name="D" xMin="0" yMin="-200" xMax="1000" yMax="800">
      <contour>
        <pt x="0" y="800" on="1"/>
        <pt x="1000" y="800" on="1"/>
        <pt x="1000" y="-200" on="1"/>
        <pt x="0" y="-200" on="1"/>
      </contour>
    </TTGlyph>
    <TTGlyph name="DEL" xMin="0" yMin="-200" xMax="1000" yMax="800">
      <contour>
        <pt x="0" y="800" on="1"/>
        <pt x="1000" y="800" on="1"/>
        <pt x="1000" y="-200" on="1"/>
        <pt x="0" y="-200" on="1"/>
      </contour>
    </TTGlyph>
    <TTGlyph name="Delta" xMin="0" yMin="-200" xMax="1000" yMax="800">
      <contour>
        <pt x="0" y="800" on="1"/>
        <pt x="1000" y="800" on="1"/>
        <pt x="1000" y="-200" on="1"/>
        <pt x="0" y="-200" on="1"/>
      </contour>
    </TTGlyph>
    <TTGlyph name="E" xMin="0" yMin="-200" xMax="1000" yMax="800">
      <contour>
        <pt x="0" y="800" on="1"/>
        <pt x="1000" y="800" on="1"/>
        <pt x="1000" y="-200" on="1"/>
        <pt x="0" y="-200" on="1"/>
      </contour>
    </TTGlyph>
    <TTGlyph name="Eacute" xMin="0" yMin="0" xMax="1000" yMax="800">
      <contour>
        <pt x="0" y="800" on="1"/>
        <pt x="1000" y="800" on="1"/>
        <pt x="1000" y="0" on="1"/>
        <pt x="0" y="0" on="1"/>
      </contour>
    </TTGlyph>
    <TTGlyph name="Ecircumflex" xMin="0" yMin="-200" xMax="1000" yMax="800">
      <contour>
        <pt x="0" y="800" on="1"/>
        <pt x="1000" y="800" on="1"/>
        <pt x="1000" y="-200" on="1"/>
        <pt x="0" y="-200" on="1"/>
      </contour>
    </TTGlyph>
    <TTGlyph name="Edieresis" xMin="0" yMin="-200" xMax="1000" yMax="800">
      <contour>
        <pt x="0" y="800" on="1"/>
        <pt x="1000" y="800" on="1"/>
        <pt x="1000" y="-200" on="1"/>
        <pt x="0" y="-200" on="1"/>
      </contour>
    </TTGlyph>
    <TTGlyph name="Egrave" xMin="0" yMin="-200" xMax="1000" yMax="800">
      <contour>
        <pt x="0" y="800" on="1"/>
        <pt x="1000" y="800" on="1"/>
        <pt x="1000" y="-200" on="1"/>
        <pt x="0" y="-200" on="1"/>
      </contour>
    </TTGlyph>
    <TTGlyph name="Eth" xMin="0" yMin="-200" xMax="1000" yMax="800">
      <contour>
        <pt x="0" y="800" on="1"/>
        <pt x="1000" y="800" on="1"/>
        <pt x="1000" y="-200" on="1"/>
        <pt x="0" y="-200" on="1"/>
      </contour>
    </TTGlyph>
    <TTGlyph name="F" xMin="0" yMin="-200" xMax="1000" yMax="800">
      <contour>
        <pt x="0" y="800" on="1"/>
        <pt x="1000" y="800" on="1"/>
        <pt x="1000" y="-200" on="1"/>
        <pt x="0" y="-200" on="1"/>
      </contour>
    </TTGlyph>
    <TTGlyph name="G" xMin="0" yMin="-200" xMax="1000" yMax="800">
      <contour>
        <pt x="0" y="800" on="1"/>
        <pt x="1000" y="800" on="1"/>
        <pt x="1000" y="-200" on="1"/>
        <pt x="0" y="-200" on="1"/>
      </contour>
    </TTGlyph>
    <TTGlyph name="H" xMin="0" yMin="-200" xMax="1000" yMax="800">
      <contour>
        <pt x="0" y="800" on="1"/>
        <pt x="1000" y="800" on="1"/>
        <pt x="1000" y="-200" on="1"/>
        <pt x="0" y="-200" on="1"/>
      </contour>
    </TTGlyph>
    <TTGlyph name="HT" xMin="0" yMin="-200" xMax="1000" yMax="800">
      <contour>
        <pt x="0" y="800" on="1"/>
        <pt x="1000" y="800" on="1"/>
        <pt x="1000" y="-200" on="1"/>
        <pt x="0" y="-200" on="1"/>
      </contour>
    </TTGlyph>
    <TTGlyph name="I" xMin="0" yMin="-200" xMax="1000" yMax="800">
      <contour>
        <pt x="0" y="800" on="1"/>
        <pt x="1000" y="800" on="1"/>
        <pt x="1000" y="-200" on="1"/>
        <pt x="0" y="-200" on="1"/>
      </contour>
    </TTGlyph>
    <TTGlyph name="Iacute" xMin="0" yMin="-200" xMax="1000" yMax="800">
      <contour>
        <pt x="0" y="800" on="1"/>
        <pt x="1000" y="800" on="1"/>
        <pt x="1000" y="-200" on="1"/>
        <pt x="0" y="-200" on="1"/>
      </contour>
    </TTGlyph>
    <TTGlyph name="Icircumflex" xMin="0" yMin="-200" xMax="1000" yMax="800">
      <contour>
        <pt x="0" y="800" on="1"/>
        <pt x="1000" y="800" on="1"/>
        <pt x="1000" y="-200" on="1"/>
        <pt x="0" y="-200" on="1"/>
      </contour>
    </TTGlyph>
    <TTGlyph name="Idieresis" xMin="0" yMin="-200" xMax="1000" yMax="800">
      <contour>
        <pt x="0" y="800" on="1"/>
        <pt x="1000" y="800" on="1"/>
        <pt x="1000" y="-200" on="1"/>
        <pt x="0" y="-200" on="1"/>
      </contour>
    </TTGlyph>
    <TTGlyph name="Igrave" xMin="0" yMin="-200" xMax="1000" yMax="800">
      <contour>
        <pt x="0" y="800" on="1"/>
        <pt x="1000" y="800" on="1"/>
        <pt x="1000" y="-200" on="1"/>
        <pt x="0" y="-200" on="1"/>
      </contour>
    </TTGlyph>
    <TTGlyph name="J" xMin="0" yMin="-200" xMax="1000" yMax="800">
      <contour>
        <pt x="0" y="800" on="1"/>
        <pt x="1000" y="800" on="1"/>
        <pt x="1000" y="-200" on="1"/>
        <pt x="0" y="-200" on="1"/>
      </contour>
    </TTGlyph>
    <TTGlyph name="K" xMin="0" yMin="-200" xMax="1000" yMax="800">
      <contour>
        <pt x="0" y="800" on="1"/>
        <pt x="1000" y="800" on="1"/>
        <pt x="1000" y="-200" on="1"/>
        <pt x="0" y="-200" on="1"/>
      </contour>
    </TTGlyph>
    <TTGlyph name="L" xMin="0" yMin="-200" xMax="1000" yMax="800">
      <contour>
        <pt x="0" y="800" on="1"/>
        <pt x="1000" y="800" on="1"/>
        <pt x="1000" y="-200" on="1"/>
        <pt x="0" y="-200" on="1"/>
      </contour>
    </TTGlyph>
    <TTGlyph name="M" xMin="0" yMin="-200" xMax="1000" yMax="800">
      <contour>
        <pt x="0" y="800" on="1"/>
        <pt x="1000" y="800" on="1"/>
        <pt x="1000" y="-200" on="1"/>
        <pt x="0" y="-200" on="1"/>
      </contour>
    </TTGlyph>
    <TTGlyph name="N" xMin="0" yMin="-200" xMax="1000" yMax="800">
      <contour>
        <pt x="0" y="800" on="1"/>
        <pt x="1000" y="800" on="1"/>
        <pt x="1000" y="-200" on="1"/>
        <pt x="0" y="-200" on="1"/>
      </contour>
    </TTGlyph>
    <TTGlyph name="Ntilde" xMin="0" yMin="-200" xMax="1000" yMax="800">
      <contour>
        <pt x="0" y="800" on="1"/>
        <pt x="1000" y="800" on="1"/>
        <pt x="1000" y="-200" on="1"/>
        <pt x="0" y="-200" on="1"/>
      </contour>
    </TTGlyph>
    <TTGlyph name="O" xMin="0" yMin="-200" xMax="1000" yMax="800">
      <contour>
        <pt x="0" y="800" on="1"/>
        <pt x="1000" y="800" on="1"/>
        <pt x="1000" y="-200" on="1"/>
        <pt x="0" y="-200" on="1"/>
      </contour>
    </TTGlyph>
    <TTGlyph name="OE" xMin="0" yMin="-200" xMax="1000" yMax="800">
      <contour>
        <pt x="0" y="800" on="1"/>
        <pt x="1000" y="800" on="1"/>
        <pt x="1000" y="-200" on="1"/>
        <pt x="0" y="-200" on="1"/>
      </contour>
    </TTGlyph>
    <TTGlyph name="Oacute" xMin="0" yMin="-200" xMax="1000" yMax="800">
      <contour>
        <pt x="0" y="800" on="1"/>
        <pt x="1000" y="800" on="1"/>
        <pt x="1000" y="-200" on="1"/>
        <pt x="0" y="-200" on="1"/>
      </contour>
    </TTGlyph>
    <TTGlyph name="Ocircumflex" xMin="0" yMin="-200" xMax="1000" yMax="800">
      <contour>
        <pt x="0" y="800" on="1"/>
        <pt x="1000" y="800" on="1"/>
        <pt x="1000" y="-200" on="1"/>
        <pt x="0" y="-200" on="1"/>
      </contour>
    </TTGlyph>
    <TTGlyph name="Odieresis" xMin="0" yMin="-200" xMax="1000" yMax="800">
      <contour>
        <pt x="0" y="800" on="1"/>
        <pt x="1000" y="800" on="1"/>
        <pt x="1000" y="-200" on="1"/>
        <pt x="0" y="-200" on="1"/>
      </contour>
    </TTGlyph>
    <TTGlyph name="Ograve" xMin="0" yMin="-200" xMax="1000" yMax="800">
      <contour>
        <pt x="0" y="800" on="1"/>
        <pt x="1000" y="800" on="1"/>
        <pt x="1000" y="-200" on="1"/>
        <pt x="0" y="-200" on="1"/>
      </contour>
    </TTGlyph>
    <TTGlyph name="Omega" xMin="0" yMin="-200" xMax="1000" yMax="800">
      <contour>
        <pt x="0" y="800" on="1"/>
        <pt x="1000" y="800" on="1"/>
        <pt x="1000" y="-200" on="1"/>
        <pt x="0" y="-200" on="1"/>
      </contour>
    </TTGlyph>
    <TTGlyph name="Oslash" xMin="0" yMin="-200" xMax="1000" yMax="800">
      <contour>
        <pt x="0" y="800" on="1"/>
        <pt x="1000" y="800" on="1"/>
        <pt x="1000" y="-200" on="1"/>
        <pt x="0" y="-200" on="1"/>
      </contour>
    </TTGlyph>
    <TTGlyph name="Otilde" xMin="0" yMin="-200" xMax="1000" yMax="800">
      <contour>
        <pt x="0" y="800" on="1"/>
        <pt x="1000" y="800" on="1"/>
        <pt x="1000" y="-200" on="1"/>
        <pt x="0" y="-200" on="1"/>
      </contour>
    </TTGlyph>
    <TTGlyph name="P" xMin="0" yMin="-200" xMax="1000" yMax="800">
      <contour>
        <pt x="0" y="800" on="1"/>
        <pt x="1000" y="800" on="1"/>
        <pt x="1000" y="-200" on="1"/>
        <pt x="0" y="-200" on="1"/>
      </contour>
    </TTGlyph>
    <TTGlyph name="Q" xMin="0" yMin="-200" xMax="1000" yMax="800">
      <contour>
        <pt x="0" y="800" on="1"/>
        <pt x="1000" y="800" on="1"/>
        <pt x="1000" y="-200" on="1"/>
        <pt x="0" y="-200" on="1"/>
      </contour>
    </TTGlyph>
    <TTGlyph name="R" xMin="0" yMin="-200" xMax="1000" yMax="800">
      <contour>
        <pt x="0" y="800" on="1"/>
        <pt x="1000" y="800" on="1"/>
        <pt x="1000" y="-200" on="1"/>
        <pt x="0" y="-200" on="1"/>
      </contour>
    </TTGlyph>
    <TTGlyph name="S" xMin="0" yMin="-200" xMax="1000" yMax="800">
      <contour>
        <pt x="0" y="800" on="1"/>
        <pt x="1000" y="800" on="1"/>
        <pt x="1000" y="-200" on="1"/>
        <pt x="0" y="-200" on="1"/>
      </contour>
    </TTGlyph>
    <TTGlyph name="T" xMin="0" yMin="-200" xMax="1000" yMax="800">
      <contour>
        <pt x="0" y="800" on="1"/>
        <pt x="1000" y="800" on="1"/>
        <pt x="1000" y="-200" on="1"/>
        <pt x="0" y="-200" on="1"/>
      </contour>
    </TTGlyph>
    <TTGlyph name="Thorn" xMin="0" yMin="-200" xMax="1000" yMax="800">
      <contour>
        <pt x="0" y="800" on="1"/>
        <pt x="1000" y="800" on="1"/>
        <pt x="1000" y="-200" on="1"/>
        <pt x="0" y="-200" on="1"/>
      </contour>
    </TTGlyph>
    <TTGlyph name="U" xMin="0" yMin="-200" xMax="1000" yMax="800">
      <contour>
        <pt x="0" y="800" on="1"/>
        <pt x="1000" y="800" on="1"/>
        <pt x="1000" y="-200" on="1"/>
        <pt x="0" y="-200" on="1"/>
      </contour>
    </TTGlyph>
    <TTGlyph name="Uacute" xMin="0" yMin="-200" xMax="1000" yMax="800">
      <contour>
        <pt x="0" y="800" on="1"/>
        <pt x="1000" y="800" on="1"/>
        <pt x="1000" y="-200" on="1"/>
        <pt x="0" y="-200" on="1"/>
      </contour>
    </TTGlyph>
    <TTGlyph name="Ucircumflex" xMin="0" yMin="-200" xMax="1000" yMax="800">
      <contour>
        <pt x="0" y="800" on="1"/>
        <pt x="1000" y="800" on="1"/>
        <pt x="1000" y="-200" on="1"/>
        <pt x="0" y="-200" on="1"/>
      </contour>
    </TTGlyph>
    <TTGlyph name="Udieresis" xMin="0" yMin="-200" xMax="1000" yMax="800">
      <contour>
        <pt x="0" y="800" on="1"/>
        <pt x="1000" y="800" on="1"/>
        <pt x="1000" y="-200" on="1"/>
        <pt x="0" y="-200" on="1"/>
      </contour>
    </TTGlyph>
    <TTGlyph name="Ugrave" xMin="0" yMin="-200" xMax="1000" yMax="800">
      <contour>
        <pt x="0" y="800" on="1"/>
        <pt x="1000" y="800" on="1"/>
        <pt x="1000" y="-200" on="1"/>
        <pt x="0" y="-200" on="1"/>
      </contour>
    </TTGlyph>
    <TTGlyph name="V" xMin="0" yMin="-200" xMax="1000" yMax="800">
      <contour>
        <pt x="0" y="800" on="1"/>
        <pt x="1000" y="800" on="1"/>
        <pt x="1000" y="-200" on="1"/>
        <pt x="0" y="-200" on="1"/>
      </contour>
    </TTGlyph>
    <TTGlyph name="W" xMin="0" yMin="-200" xMax="1000" yMax="800">
      <contour>
        <pt x="0" y="800" on="1"/>
        <pt x="1000" y="800" on="1"/>
        <pt x="1000" y="-200" on="1"/>
        <pt x="0" y="-200" on="1"/>
      </contour>
    </TTGlyph>
    <TTGlyph name="X" xMin="0" yMin="-200" xMax="1000" yMax="800">
      <contour>
        <pt x="0" y="800" on="1"/>
        <pt x="1000" y="800" on="1"/>
        <pt x="1000" y="-200" on="1"/>
        <pt x="0" y="-200" on="1"/>
      </contour>
    </TTGlyph>
    <TTGlyph name="Y" xMin="0" yMin="-200" xMax="1000" yMax="800">
      <contour>
        <pt x="0" y="800" on="1"/>
        <pt x="1000" y="800" on="1"/>
        <pt x="1000" y="-200" on="1"/>
        <pt x="0" y="-200" on="1"/>
      </contour>
    </TTGlyph>
    <TTGlyph name="Yacute" xMin="0" yMin="-200" xMax="1000" yMax="800">
      <contour>
        <pt x="0" y="800" on="1"/>
        <pt x="1000" y="800" on="1"/>
        <pt x="1000" y="-200" on="1"/>
        <pt x="0" y="-200" on="1"/>
      </contour>
    </TTGlyph>
    <TTGlyph name="Ydieresis" xMin="0" yMin="-200" xMax="1000" yMax="800">
      <contour>
        <pt x="0" y="800" on="1"/>
        <pt x="1000" y="800" on="1"/>
        <pt x="1000" y="-200" on="1"/>
        <pt x="0" y="-200" on="1"/>
      </contour>
    </TTGlyph>
    <TTGlyph name="Z" xMin="0" yMin="-200" xMax="1000" yMax="800">
      <contour>
        <pt x="0" y="800" on="1"/>
        <pt x="1000" y="800" on="1"/>
        <pt x="1000" y="-200" on="1"/>
        <pt x="0" y="-200" on="1"/>
      </contour>
    </TTGlyph>
    <TTGlyph name="a" xMin="0" yMin="-200" xMax="1000" yMax="800">
      <contour>
        <pt x="0" y="800" on="1"/>
        <pt x="1000" y="800" on="1"/>
        <pt x="1000" y="-200" on="1"/>
        <pt x="0" y="-200" on="1"/>
      </contour>
    </TTGlyph>
    <TTGlyph name="aacute" xMin="0" yMin="-200" xMax="1000" yMax="800">
      <contour>
        <pt x="0" y="800" on="1"/>
        <pt x="1000" y="800" on="1"/>
        <pt x="1000" y="-200" on="1"/>
        <pt x="0" y="-200" on="1"/>
      </contour>
    </TTGlyph>
    <TTGlyph name="acircumflex" xMin="0" yMin="-200" xMax="1000" yMax="800">
      <contour>
        <pt x="0" y="800" on="1"/>
        <pt x="1000" y="800" on="1"/>
        <pt x="1000" y="-200" on="1"/>
        <pt x="0" y="-200" on="1"/>
      </contour>
    </TTGlyph>
    <TTGlyph name="acute" xMin="0" yMin="-200" xMax="1000" yMax="800">
      <contour>
        <pt x="0" y="800" on="1"/>
        <pt x="1000" y="800" on="1"/>
        <pt x="1000" y="-200" on="1"/>
        <pt x="0" y="-200" on="1"/>
      </contour>
    </TTGlyph>
    <TTGlyph name="adieresis" xMin="0" yMin="-200" xMax="1000" yMax="800">
      <contour>
        <pt x="0" y="800" on="1"/>
        <pt x="1000" y="800" on="1"/>
        <pt x="1000" y="-200" on="1"/>
        <pt x="0" y="-200" on="1"/>
      </contour>
    </TTGlyph>
    <TTGlyph name="ae" xMin="0" yMin="-200" xMax="1000" yMax="800">
      <contour>
        <pt x="0" y="800" on="1"/>
        <pt x="1000" y="800" on="1"/>
        <pt x="1000" y="-200" on="1"/>
        <pt x="0" y="-200" on="1"/>
      </contour>
    </TTGlyph>
    <TTGlyph name="agrave" xMin="0" yMin="-200" xMax="1000" yMax="800">
      <contour>
        <pt x="0" y="800" on="1"/>
        <pt x="1000" y="800" on="1"/>
        <pt x="1000" y="-200" on="1"/>
        <pt x="0" y="-200" on="1"/>
      </contour>
    </TTGlyph>
    <TTGlyph name="ampersand" xMin="0" yMin="-200" xMax="1000" yMax="800">
      <contour>
        <pt x="0" y="800" on="1"/>
        <pt x="1000" y="800" on="1"/>
        <pt x="1000" y="-200" on="1"/>
        <pt x="0" y="-200" on="1"/>
      </contour>
    </TTGlyph>
    <TTGlyph name="apple" xMin="0" yMin="-200" xMax="1000" yMax="800">
      <contour>
        <pt x="0" y="800" on="1"/>
        <pt x="1000" y="800" on="1"/>
        <pt x="1000" y="-200" on="1"/>
        <pt x="0" y="-200" on="1"/>
      </contour>
    </TTGlyph>
    <TTGlyph name="approxequal" xMin="0" yMin="-200" xMax="1000" yMax="800">
      <contour>
        <pt x="0" y="800" on="1"/>
        <pt x="1000" y="800" on="1"/>
        <pt x="1000" y="-200" on="1"/>
        <pt x="0" y="-200" on="1"/>
      </contour>
    </TTGlyph>
    <TTGlyph name="aring" xMin="0" yMin="-200" xMax="1000" yMax="800">
      <contour>
        <pt x="0" y="800" on="1"/>
        <pt x="1000" y="800" on="1"/>
        <pt x="1000" y="-200" on="1"/>
        <pt x="0" y="-200" on="1"/>
      </contour>
    </TTGlyph>
    <TTGlyph name="asciicircum" xMin="0" yMin="-200" xMax="1000" yMax="800">
      <contour>
        <pt x="0" y="800" on="1"/>
        <pt x="1000" y="800" on="1"/>
        <pt x="1000" y="-200" on="1"/>
        <pt x="0" y="-200" on="1"/>
      </contour>
    </TTGlyph>
    <TTGlyph name="asciitilde" xMin="0" yMin="-200" xMax="1000" yMax="800">
      <contour>
        <pt x="0" y="800" on="1"/>
        <pt x="1000" y="800" on="1"/>
        <pt x="1000" y="-200" on="1"/>
        <pt x="0" y="-200" on="1"/>
      </contour>
    </TTGlyph>
    <TTGlyph name="asterisk" xMin="0" yMin="-200" xMax="1000" yMax="800">
      <contour>
        <pt x="0" y="800" on="1"/>
        <pt x="1000" y="800" on="1"/>
        <pt x="1000" y="-200" on="1"/>
        <pt x="0" y="-200" on="1"/>
      </contour>
    </TTGlyph>
    <TTGlyph name="at" xMin="0" yMin="-200" xMax="1000" yMax="800">
      <contour>
        <pt x="0" y="800" on="1"/>
        <pt x="1000" y="800" on="1"/>
        <pt x="1000" y="-200" on="1"/>
        <pt x="0" y="-200" on="1"/>
      </contour>
    </TTGlyph>
    <TTGlyph name="atilde" xMin="0" yMin="-200" xMax="1000" yMax="800">
      <contour>
        <pt x="0" y="800" on="1"/>
        <pt x="1000" y="800" on="1"/>
        <pt x="1000" y="-200" on="1"/>
        <pt x="0" y="-200" on="1"/>
      </contour>
    </TTGlyph>
    <TTGlyph name="b" xMin="0" yMin="-200" xMax="1000" yMax="800">
      <contour>
        <pt x="0" y="800" on="1"/>
        <pt x="1000" y="800" on="1"/>
        <pt x="1000" y="-200" on="1"/>
        <pt x="0" y="-200" on="1"/>
      </contour>
    </TTGlyph>
    <TTGlyph name="backslash" xMin="0" yMin="-200" xMax="1000" yMax="800">
      <contour>
        <pt x="0" y="800" on="1"/>
        <pt x="1000" y="800" on="1"/>
        <pt x="1000" y="-200" on="1"/>
        <pt x="0" y="-200" on="1"/>
      </contour>
    </TTGlyph>
    <TTGlyph name="bar" xMin="0" yMin="-200" xMax="1000" yMax="800">
      <contour>
        <pt x="0" y="800" on="1"/>
        <pt x="1000" y="800" on="1"/>
        <pt x="1000" y="-200" on="1"/>
        <pt x="0" y="-200" on="1"/>
      </contour>
    </TTGlyph>
    <TTGlyph name="braceleft" xMin="0" yMin="-200" xMax="1000" yMax="800">
      <contour>
        <pt x="0" y="800" on="1"/>
        <pt x="1000" y="800" on="1"/>
        <pt x="1000" y="-200" on="1"/>
        <pt x="0" y="-200" on="1"/>
      </contour>
    </TTGlyph>
    <TTGlyph name="braceright" xMin="0" yMin="-200" xMax="1000" yMax="800">
      <contour>
        <pt x="0" y="800" on="1"/>
        <pt x="1000" y="800" on="1"/>
        <pt x="1000" y="-200" on="1"/>
        <pt x="0" y="-200" on="1"/>
      </contour>
    </TTGlyph>
    <TTGlyph name="bracketleft" xMin="0" yMin="-200" xMax="1000" yMax="800">
      <contour>
        <pt x="0" y="800" on="1"/>
        <pt x="1000" y="800" on="1"/>
        <pt x="1000" y="-200" on="1"/>
        <pt x="0" y="-200" on="1"/>
      </contour>
    </TTGlyph>
    <TTGlyph name="bracketright" xMin="0" yMin="-200" xMax="1000" yMax="800">
      <contour>
        <pt x="0" y="800" on="1"/>
        <pt x="1000" y="800" on="1"/>
        <pt x="1000" y="-200" on="1"/>
        <pt x="0" y="-200" on="1"/>
      </contour>
    </TTGlyph>
    <TTGlyph name="breve" xMin="0" yMin="-200" xMax="1000" yMax="800">
      <contour>
        <pt x="0" y="800" on="1"/>
        <pt x="1000" y="800" on="1"/>
        <pt x="1000" y="-200" on="1"/>
        <pt x="0" y="-200" on="1"/>
      </contour>
    </TTGlyph>
    <TTGlyph name="brokenbar" xMin="0" yMin="-200" xMax="1000" yMax="800">
      <contour>
        <pt x="0" y="800" on="1"/>
        <pt x="1000" y="800" on="1"/>
        <pt x="1000" y="-200" on="1"/>
        <pt x="0" y="-200" on="1"/>
      </contour>
    </TTGlyph>
    <TTGlyph name="bullet" xMin="0" yMin="-200" xMax="1000" yMax="800">
      <contour>
        <pt x="0" y="800" on="1"/>
        <pt x="1000" y="800" on="1"/>
        <pt x="1000" y="-200" on="1"/>
        <pt x="0" y="-200" on="1"/>
      </contour>
    </TTGlyph>
    <TTGlyph name="c" xMin="0" yMin="-200" xMax="1000" yMax="800">
      <contour>
        <pt x="0" y="800" on="1"/>
        <pt x="1000" y="800" on="1"/>
        <pt x="1000" y="-200" on="1"/>
        <pt x="0" y="-200" on="1"/>
      </contour>
    </TTGlyph>
    <TTGlyph name="caron" xMin="0" yMin="-200" xMax="1000" yMax="800">
      <contour>
        <pt x="0" y="800" on="1"/>
        <pt x="1000" y="800" on="1"/>
        <pt x="1000" y="-200" on="1"/>
        <pt x="0" y="-200" on="1"/>
      </contour>
    </TTGlyph>
    <TTGlyph name="ccedilla" xMin="0" yMin="-200" xMax="1000" yMax="800">
      <contour>
        <pt x="0" y="800" on="1"/>
        <pt x="1000" y="800" on="1"/>
        <pt x="1000" y="-200" on="1"/>
        <pt x="0" y="-200" on="1"/>
      </contour>
    </TTGlyph>
    <TTGlyph name="cedilla" xMin="0" yMin="-200" xMax="1000" yMax="800">
      <contour>
        <pt x="0" y="800" on="1"/>
        <pt x="1000" y="800" on="1"/>
        <pt x="1000" y="-200" on="1"/>
        <pt x="0" y="-200" on="1"/>
      </contour>
    </TTGlyph>
    <TTGlyph name="cent" xMin="0" yMin="-200" xMax="1000" yMax="800">
      <contour>
        <pt x="0" y="800" on="1"/>
        <pt x="1000" y="800" on="1"/>
        <pt x="1000" y="-200" on="1"/>
        <pt x="0" y="-200" on="1"/>
      </contour>
    </TTGlyph>
    <TTGlyph name="circumflex" xMin="0" yMin="-200" xMax="1000" yMax="800">
      <contour>
        <pt x="0" y="800" on="1"/>
        <pt x="1000" y="800" on="1"/>
        <pt x="1000" y="-200" on="1"/>
        <pt x="0" y="-200" on="1"/>
      </contour>
    </TTGlyph>
    <TTGlyph name="colon" xMin="0" yMin="-200" xMax="1000" yMax="800">
      <contour>
        <pt x="0" y="800" on="1"/>
        <pt x="1000" y="800" on="1"/>
        <pt x="1000" y="-200" on="1"/>
        <pt x="0" y="-200" on="1"/>
      </contour>
    </TTGlyph>
    <TTGlyph name="comma" xMin="0" yMin="-200" xMax="1000" yMax="800">
      <contour>
        <pt x="0" y="800" on="1"/>
        <pt x="1000" y="800" on="1"/>
        <pt x="1000" y="-200" on="1"/>
        <pt x="0" y="-200" on="1"/>
      </contour>
    </TTGlyph>
    <TTGlyph name="copyright" xMin="0" yMin="-200" xMax="1000" yMax="800">
      <contour>
        <pt x="0" y="800" on="1"/>
        <pt x="1000" y="800" on="1"/>
        <pt x="1000" y="-200" on="1"/>
        <pt x="0" y="-200" on="1"/>
      </contour>
    </TTGlyph>
    <TTGlyph name="currency" xMin="0" yMin="-200" xMax="1000" yMax="800">
      <contour>
        <pt x="0" y="800" on="1"/>
        <pt x="1000" y="800" on="1"/>
        <pt x="1000" y="-200" on="1"/>
        <pt x="0" y="-200" on="1"/>
      </contour>
    </TTGlyph>
    <TTGlyph name="d" xMin="0" yMin="-200" xMax="1000" yMax="800">
      <contour>
        <pt x="0" y="800" on="1"/>
        <pt x="1000" y="800" on="1"/>
        <pt x="1000" y="-200" on="1"/>
        <pt x="0" y="-200" on="1"/>
      </contour>
    </TTGlyph>
    <TTGlyph name="dagger" xMin="0" yMin="-200" xMax="1000" yMax="800">
      <contour>
        <pt x="0" y="800" on="1"/>
        <pt x="1000" y="800" on="1"/>
        <pt x="1000" y="-200" on="1"/>
        <pt x="0" y="-200" on="1"/>
      </contour>
    </TTGlyph>
    <TTGlyph name="daggerdbl" xMin="0" yMin="-200" xMax="1000" yMax="800">
      <contour>
        <pt x="0" y="800" on="1"/>
        <pt x="1000" y="800" on="1"/>
        <pt x="1000" y="-200" on="1"/>
        <pt x="0" y="-200" on="1"/>
      </contour>
    </TTGlyph>
    <TTGlyph name="degree" xMin="0" yMin="-200" xMax="1000" yMax="800">
      <contour>
        <pt x="0" y="800" on="1"/>
        <pt x="1000" y="800" on="1"/>
        <pt x="1000" y="-200" on="1"/>
        <pt x="0" y="-200" on="1"/>
      </contour>
    </TTGlyph>
    <TTGlyph name="dieresis" xMin="0" yMin="-200" xMax="1000" yMax="800">
      <contour>
        <pt x="0" y="800" on="1"/>
        <pt x="1000" y="800" on="1"/>
        <pt x="1000" y="-200" on="1"/>
        <pt x="0" y="-200" on="1"/>
      </contour>
    </TTGlyph>
    <TTGlyph name="divide" xMin="0" yMin="-200" xMax="1000" yMax="800">
      <contour>
        <pt x="0" y="800" on="1"/>
        <pt x="1000" y="800" on="1"/>
        <pt x="1000" y="-200" on="1"/>
        <pt x="0" y="-200" on="1"/>
      </contour>
    </TTGlyph>
    <TTGlyph name="dollar" xMin="0" yMin="-200" xMax="1000" yMax="800">
      <contour>
        <pt x="0" y="800" on="1"/>
        <pt x="1000" y="800" on="1"/>
        <pt x="1000" y="-200" on="1"/>
        <pt x="0" y="-200" on="1"/>
      </contour>
    </TTGlyph>
    <TTGlyph name="dotaccent" xMin="0" yMin="-200" xMax="1000" yMax="800">
      <contour>
        <pt x="0" y="800" on="1"/>
        <pt x="1000" y="800" on="1"/>
        <pt x="1000" y="-200" on="1"/>
        <pt x="0" y="-200" on="1"/>
      </contour>
    </TTGlyph>
    <TTGlyph name="dotlessi" xMin="0" yMin="-200" xMax="1000" yMax="800">
      <contour>
        <pt x="0" y="800" on="1"/>
        <pt x="1000" y="800" on="1"/>
        <pt x="1000" y="-200" on="1"/>
        <pt x="0" y="-200" on="1"/>
      </contour>
    </TTGlyph>
    <TTGlyph name="e" xMin="0" yMin="-200" xMax="1000" yMax="800">
      <contour>
        <pt x="0" y="800" on="1"/>
        <pt x="1000" y="800" on="1"/>
        <pt x="1000" y="-200" on="1"/>
        <pt x="0" y="-200" on="1"/>
      </contour>
    </TTGlyph>
    <TTGlyph name="eacute" xMin="0" yMin="-200" xMax="1000" yMax="800">
      <contour>
        <pt x="0" y="800" on="1"/>
        <pt x="1000" y="800" on="1"/>
        <pt x="1000" y="-200" on="1"/>
        <pt x="0" y="-200" on="1"/>
      </contour>
    </TTGlyph>
    <TTGlyph name="ecircumflex" xMin="0" yMin="-200" xMax="1000" yMax="800">
      <contour>
        <pt x="0" y="800" on="1"/>
        <pt x="1000" y="800" on="1"/>
        <pt x="1000" y="-200" on="1"/>
        <pt x="0" y="-200" on="1"/>
      </contour>
    </TTGlyph>
    <TTGlyph name="edieresis" xMin="0" yMin="-200" xMax="1000" yMax="800">
      <contour>
        <pt x="0" y="800" on="1"/>
        <pt x="1000" y="800" on="1"/>
        <pt x="1000" y="-200" on="1"/>
        <pt x="0" y="-200" on="1"/>
      </contour>
    </TTGlyph>
    <TTGlyph name="egrave" xMin="0" yMin="-200" xMax="1000" yMax="800">
      <contour>
        <pt x="0" y="800" on="1"/>
        <pt x="1000" y="800" on="1"/>
        <pt x="1000" y="-200" on="1"/>
        <pt x="0" y="-200" on="1"/>
      </contour>
    </TTGlyph>
    <TTGlyph name="eight" xMin="0" yMin="-200" xMax="1000" yMax="800">
      <contour>
        <pt x="0" y="800" on="1"/>
        <pt x="1000" y="800" on="1"/>
        <pt x="1000" y="-200" on="1"/>
        <pt x="0" y="-200" on="1"/>
      </contour>
    </TTGlyph>
    <TTGlyph name="ellipsis" xMin="0" yMin="-200" xMax="1000" yMax="800">
      <contour>
        <pt x="0" y="800" on="1"/>
        <pt x="1000" y="800" on="1"/>
        <pt x="1000" y="-200" on="1"/>
        <pt x="0" y="-200" on="1"/>
      </contour>
    </TTGlyph>
    <TTGlyph name="emdash" xMin="0" yMin="-200" xMax="1000" yMax="800">
      <contour>
        <pt x="0" y="800" on="1"/>
        <pt x="1000" y="800" on="1"/>
        <pt x="1000" y="-200" on="1"/>
        <pt x="0" y="-200" on="1"/>
      </contour>
    </TTGlyph>
    <TTGlyph name="endash" xMin="0" yMin="-200" xMax="1000" yMax="800">
      <contour>
        <pt x="0" y="800" on="1"/>
        <pt x="1000" y="800" on="1"/>
        <pt x="1000" y="-200" on="1"/>
        <pt x="0" y="-200" on="1"/>
      </contour>
    </TTGlyph>
    <TTGlyph name="equal" xMin="0" yMin="-200" xMax="1000" yMax="800">
      <contour>
        <pt x="0" y="800" on="1"/>
        <pt x="1000" y="800" on="1"/>
        <pt x="1000" y="-200" on="1"/>
        <pt x="0" y="-200" on="1"/>
      </contour>
    </TTGlyph>
    <TTGlyph name="eth" xMin="0" yMin="-200" xMax="1000" yMax="800">
      <contour>
        <pt x="0" y="800" on="1"/>
        <pt x="1000" y="800" on="1"/>
        <pt x="1000" y="-200" on="1"/>
        <pt x="0" y="-200" on="1"/>
      </contour>
    </TTGlyph>
    <TTGlyph name="exclam" xMin="0" yMin="-200" xMax="1000" yMax="800">
      <contour>
        <pt x="0" y="800" on="1"/>
        <pt x="1000" y="800" on="1"/>
        <pt x="1000" y="-200" on="1"/>
        <pt x="0" y="-200" on="1"/>
      </contour>
    </TTGlyph>
    <TTGlyph name="exclamdown" xMin="0" yMin="-200" xMax="1000" yMax="800">
      <contour>
        <pt x="0" y="800" on="1"/>
        <pt x="1000" y="800" on="1"/>
        <pt x="1000" y="-200" on="1"/>
        <pt x="0" y="-200" on="1"/>
      </contour>
    </TTGlyph>
    <TTGlyph name="f" xMin="0" yMin="-200" xMax="1000" yMax="800">
      <contour>
        <pt x="0" y="800" on="1"/>
        <pt x="1000" y="800" on="1"/>
        <pt x="1000" y="-200" on="1"/>
        <pt x="0" y="-200" on="1"/>
      </contour>
    </TTGlyph>
    <TTGlyph name="fi" xMin="0" yMin="-200" xMax="1000" yMax="800">
      <contour>
        <pt x="0" y="800" on="1"/>
        <pt x="1000" y="800" on="1"/>
        <pt x="1000" y="-200" on="1"/>
        <pt x="0" y="-200" on="1"/>
      </contour>
    </TTGlyph>
    <TTGlyph name="five" xMin="0" yMin="-200" xMax="1000" yMax="800">
      <contour>
        <pt x="0" y="800" on="1"/>
        <pt x="1000" y="800" on="1"/>
        <pt x="1000" y="-200" on="1"/>
        <pt x="0" y="-200" on="1"/>
      </contour>
    </TTGlyph>
    <TTGlyph name="fl" xMin="0" yMin="-200" xMax="1000" yMax="800">
      <contour>
        <pt x="0" y="800" on="1"/>
        <pt x="1000" y="800" on="1"/>
        <pt x="1000" y="-200" on="1"/>
        <pt x="0" y="-200" on="1"/>
      </contour>
    </TTGlyph>
    <TTGlyph name="florin" xMin="0" yMin="-200" xMax="1000" yMax="800">
      <contour>
        <pt x="0" y="800" on="1"/>
        <pt x="1000" y="800" on="1"/>
        <pt x="1000" y="-200" on="1"/>
        <pt x="0" y="-200" on="1"/>
      </contour>
    </TTGlyph>
    <TTGlyph name="four" xMin="0" yMin="-200" xMax="1000" yMax="800">
      <contour>
        <pt x="0" y="800" on="1"/>
        <pt x="1000" y="800" on="1"/>
        <pt x="1000" y="-200" on="1"/>
        <pt x="0" y="-200" on="1"/>
      </contour>
    </TTGlyph>
    <TTGlyph name="fraction" xMin="0" yMin="-200" xMax="1000" yMax="800">
      <contour>
        <pt x="0" y="800" on="1"/>
        <pt x="1000" y="800" on="1"/>
        <pt x="1000" y="-200" on="1"/>
        <pt x="0" y="-200" on="1"/>
      </contour>
    </TTGlyph>
    <TTGlyph name="g" xMin="0" yMin="-200" xMax="1000" yMax="800">
      <contour>
        <pt x="0" y="800" on="1"/>
        <pt x="1000" y="800" on="1"/>
        <pt x="1000" y="-200" on="1"/>
        <pt x="0" y="-200" on="1"/>
      </contour>
    </TTGlyph>
    <TTGlyph name="germandbls" xMin="0" yMin="-200" xMax="1000" yMax="800">
      <contour>
        <pt x="0" y="800" on="1"/>
        <pt x="1000" y="800" on="1"/>
        <pt x="1000" y="-200" on="1"/>
        <pt x="0" y="-200" on="1"/>
      </contour>
    </TTGlyph>
    <TTGlyph name="glyph204" xMin="0" yMin="-200" xMax="1000" yMax="800">
      <contour>
        <pt x="0" y="800" on="1"/>
        <pt x="1000" y="800" on="1"/>
        <pt x="1000" y="-200" on="1"/>
        <pt x="0" y="-200" on="1"/>
      </contour>
    </TTGlyph>
    <TTGlyph name="glyph205" xMin="0" yMin="-200" xMax="1000" yMax="800">
      <contour>
        <pt x="0" y="800" on="1"/>
        <pt x="1000" y="800" on="1"/>
        <pt x="1000" y="-200" on="1"/>
        <pt x="0" y="-200" on="1"/>
      </contour>
    </TTGlyph>
    <TTGlyph name="grave" xMin="0" yMin="-200" xMax="1000" yMax="800">
      <contour>
        <pt x="0" y="800" on="1"/>
        <pt x="1000" y="800" on="1"/>
        <pt x="1000" y="-200" on="1"/>
        <pt x="0" y="-200" on="1"/>
      </contour>
    </TTGlyph>
    <TTGlyph name="greater" xMin="0" yMin="-200" xMax="1000" yMax="800">
      <contour>
        <pt x="0" y="800" on="1"/>
        <pt x="1000" y="800" on="1"/>
        <pt x="1000" y="-200" on="1"/>
        <pt x="0" y="-200" on="1"/>
      </contour>
    </TTGlyph>
    <TTGlyph name="greaterequal" xMin="0" yMin="-200" xMax="1000" yMax="800">
      <contour>
        <pt x="0" y="800" on="1"/>
        <pt x="1000" y="800" on="1"/>
        <pt x="1000" y="-200" on="1"/>
        <pt x="0" y="-200" on="1"/>
      </contour>
    </TTGlyph>
    <TTGlyph name="guillemotleft" xMin="0" yMin="-200" xMax="1000" yMax="800">
      <contour>
        <pt x="0" y="800" on="1"/>
        <pt x="1000" y="800" on="1"/>
        <pt x="1000" y="-200" on="1"/>
        <pt x="0" y="-200" on="1"/>
      </contour>
    </TTGlyph>
    <TTGlyph name="guillemotright" xMin="0" yMin="-200" xMax="1000" yMax="800">
      <contour>
        <pt x="0" y="800" on="1"/>
        <pt x="1000" y="800" on="1"/>
        <pt x="1000" y="-200" on="1"/>
        <pt x="0" y="-200" on="1"/>
      </contour>
    </TTGlyph>
    <TTGlyph name="guilsinglleft" xMin="0" yMin="-200" xMax="1000" yMax="800">
      <contour>
        <pt x="0" y="800" on="1"/>
        <pt x="1000" y="800" on="1"/>
        <pt x="1000" y="-200" on="1"/>
        <pt x="0" y="-200" on="1"/>
      </contour>
    </TTGlyph>
    <TTGlyph name="guilsinglright" xMin="0" yMin="-200" xMax="1000" yMax="800">
      <contour>
        <pt x="0" y="800" on="1"/>
        <pt x="1000" y="800" on="1"/>
        <pt x="1000" y="-200" on="1"/>
        <pt x="0" y="-200" on="1"/>
      </contour>
    </TTGlyph>
    <TTGlyph name="h" xMin="0" yMin="-200" xMax="1000" yMax="800">
      <contour>
        <pt x="0" y="800" on="1"/>
        <pt x="1000" y="800" on="1"/>
        <pt x="1000" y="-200" on="1"/>
        <pt x="0" y="-200" on="1"/>
      </contour>
    </TTGlyph>
    <TTGlyph name="hungarumlaut" xMin="0" yMin="-200" xMax="1000" yMax="800">
      <contour>
        <pt x="0" y="800" on="1"/>
        <pt x="1000" y="800" on="1"/>
        <pt x="1000" y="-200" on="1"/>
        <pt x="0" y="-200" on="1"/>
      </contour>
    </TTGlyph>
    <TTGlyph name="hyphen" xMin="0" yMin="-200" xMax="1000" yMax="800">
      <contour>
        <pt x="0" y="800" on="1"/>
        <pt x="1000" y="800" on="1"/>
        <pt x="1000" y="-200" on="1"/>
        <pt x="0" y="-200" on="1"/>
      </contour>
    </TTGlyph>
    <TTGlyph name="i" xMin="0" yMin="-200" xMax="1000" yMax="800">
      <contour>
        <pt x="0" y="800" on="1"/>
        <pt x="1000" y="800" on="1"/>
        <pt x="1000" y="-200" on="1"/>
        <pt x="0" y="-200" on="1"/>
      </contour>
    </TTGlyph>
    <TTGlyph name="iacute" xMin="0" yMin="-200" xMax="1000" yMax="800">
      <contour>
        <pt x="0" y="800" on="1"/>
        <pt x="1000" y="800" on="1"/>
        <pt x="1000" y="-200" on="1"/>
        <pt x="0" y="-200" on="1"/>
      </contour>
    </TTGlyph>
    <TTGlyph name="icircumflex" xMin="0" yMin="-200" xMax="1000" yMax="800">
      <contour>
        <pt x="0" y="800" on="1"/>
        <pt x="1000" y="800" on="1"/>
        <pt x="1000" y="-200" on="1"/>
        <pt x="0" y="-200" on="1"/>
      </contour>
    </TTGlyph>
    <TTGlyph name="idieresis" xMin="0" yMin="-200" xMax="1000" yMax="800">
      <contour>
        <pt x="0" y="800" on="1"/>
        <pt x="1000" y="800" on="1"/>
        <pt x="1000" y="-200" on="1"/>
        <pt x="0" y="-200" on="1"/>
      </contour>
    </TTGlyph>
    <TTGlyph name="igrave" xMin="0" yMin="-200" xMax="1000" yMax="800">
      <contour>
        <pt x="0" y="800" on="1"/>
        <pt x="1000" y="800" on="1"/>
        <pt x="1000" y="-200" on="1"/>
        <pt x="0" y="-200" on="1"/>
      </contour>
    </TTGlyph>
    <TTGlyph name="infinity" xMin="0" yMin="-200" xMax="1000" yMax="800">
      <contour>
        <pt x="0" y="800" on="1"/>
        <pt x="1000" y="800" on="1"/>
        <pt x="1000" y="-200" on="1"/>
        <pt x="0" y="-200" on="1"/>
      </contour>
    </TTGlyph>
    <TTGlyph name="integral" xMin="0" yMin="-200" xMax="1000" yMax="800">
      <contour>
        <pt x="0" y="800" on="1"/>
        <pt x="1000" y="800" on="1"/>
        <pt x="1000" y="-200" on="1"/>
        <pt x="0" y="-200" on="1"/>
      </contour>
    </TTGlyph>
    <TTGlyph name="j" xMin="0" yMin="-200" xMax="1000" yMax="800">
      <contour>
        <pt x="0" y="800" on="1"/>
        <pt x="1000" y="800" on="1"/>
        <pt x="1000" y="-200" on="1"/>
        <pt x="0" y="-200" on="1"/>
      </contour>
    </TTGlyph>
    <TTGlyph name="k" xMin="0" yMin="-200" xMax="1000" yMax="800">
      <contour>
        <pt x="0" y="800" on="1"/>
        <pt x="1000" y="800" on="1"/>
        <pt x="1000" y="-200" on="1"/>
        <pt x="0" y="-200" on="1"/>
      </contour>
    </TTGlyph>
    <TTGlyph name="l" xMin="0" yMin="-200" xMax="1000" yMax="800">
      <contour>
        <pt x="0" y="800" on="1"/>
        <pt x="1000" y="800" on="1"/>
        <pt x="1000" y="-200" on="1"/>
        <pt x="0" y="-200" on="1"/>
      </contour>
    </TTGlyph>
    <TTGlyph name="less" xMin="0" yMin="-200" xMax="1000" yMax="800">
      <contour>
        <pt x="0" y="800" on="1"/>
        <pt x="1000" y="800" on="1"/>
        <pt x="1000" y="-200" on="1"/>
        <pt x="0" y="-200" on="1"/>
      </contour>
    </TTGlyph>
    <TTGlyph name="lessequal" xMin="0" yMin="-200" xMax="1000" yMax="800">
      <contour>
        <pt x="0" y="800" on="1"/>
        <pt x="1000" y="800" on="1"/>
        <pt x="1000" y="-200" on="1"/>
        <pt x="0" y="-200" on="1"/>
      </contour>
    </TTGlyph>
    <TTGlyph name="logicalnot" xMin="0" yMin="-200" xMax="1000" yMax="800">
      <contour>
        <pt x="0" y="800" on="1"/>
        <pt x="1000" y="800" on="1"/>
        <pt x="1000" y="-200" on="1"/>
        <pt x="0" y="-200" on="1"/>
      </contour>
    </TTGlyph>
    <TTGlyph name="lozenge" xMin="0" yMin="-200" xMax="1000" yMax="800">
      <contour>
        <pt x="0" y="800" on="1"/>
        <pt x="1000" y="800" on="1"/>
        <pt x="1000" y="-200" on="1"/>
        <pt x="0" y="-200" on="1"/>
      </contour>
    </TTGlyph>
    <TTGlyph name="m" xMin="0" yMin="-200" xMax="1000" yMax="800">
      <contour>
        <pt x="0" y="800" on="1"/>
        <pt x="1000" y="800" on="1"/>
        <pt x="1000" y="-200" on="1"/>
        <pt x="0" y="-200" on="1"/>
      </contour>
    </TTGlyph>
    <TTGlyph name="macron" xMin="0" yMin="-200" xMax="1000" yMax="800">
      <contour>
        <pt x="0" y="800" on="1"/>
        <pt x="1000" y="800" on="1"/>
        <pt x="1000" y="-200" on="1"/>
        <pt x="0" y="-200" on="1"/>
      </contour>
    </TTGlyph>
    <TTGlyph name="minus" xMin="0" yMin="-200" xMax="1000" yMax="800">
      <contour>
        <pt x="0" y="800" on="1"/>
        <pt x="1000" y="800" on="1"/>
        <pt x="1000" y="-200" on="1"/>
        <pt x="0" y="-200" on="1"/>
      </contour>
    </TTGlyph>
    <TTGlyph name="mu" xMin="0" yMin="-200" xMax="1000" yMax="800">
      <contour>
        <pt x="0" y="800" on="1"/>
        <pt x="1000" y="800" on="1"/>
        <pt x="1000" y="-200" on="1"/>
        <pt x="0" y="-200" on="1"/>
      </contour>
    </TTGlyph>
    <TTGlyph name="multiply" xMin="0" yMin="-200" xMax="1000" yMax="800">
      <contour>
        <pt x="0" y="800" on="1"/>
        <pt x="1000" y="800" on="1"/>
        <pt x="1000" y="-200" on="1"/>
        <pt x="0" y="-200" on="1"/>
      </contour>
    </TTGlyph>
    <TTGlyph name="n" xMin="0" yMin="-200" xMax="1000" yMax="800">
      <contour>
        <pt x="0" y="800" on="1"/>
        <pt x="1000" y="800" on="1"/>
        <pt x="1000" y="-200" on="1"/>
        <pt x="0" y="-200" on="1"/>
      </contour>
    </TTGlyph>
    <TTGlyph name="nine" xMin="0" yMin="-200" xMax="1000" yMax="800">
      <contour>
        <pt x="0" y="800" on="1"/>
        <pt x="1000" y="800" on="1"/>
        <pt x="1000" y="-200" on="1"/>
        <pt x="0" y="-200" on="1"/>
      </contour>
    </TTGlyph>
    <TTGlyph name="nonmarkingreturn" xMin="0" yMin="-200" xMax="1000" yMax="800">
      <contour>
        <pt x="0" y="800" on="1"/>
        <pt x="1000" y="800" on="1"/>
        <pt x="1000" y="-200" on="1"/>
        <pt x="0" y="-200" on="1"/>
      </contour>
    </TTGlyph>
    <TTGlyph name="notequal" xMin="0" yMin="-200" xMax="1000" yMax="800">
      <contour>
        <pt x="0" y="800" on="1"/>
        <pt x="1000" y="800" on="1"/>
        <pt x="1000" y="-200" on="1"/>
        <pt x="0" y="-200" on="1"/>
      </contour>
    </TTGlyph>
    <TTGlyph name="ntilde" xMin="0" yMin="-200" xMax="1000" yMax="800">
      <contour>
        <pt x="0" y="800" on="1"/>
        <pt x="1000" y="800" on="1"/>
        <pt x="1000" y="-200" on="1"/>
        <pt x="0" y="-200" on="1"/>
      </contour>
    </TTGlyph>
    <TTGlyph name="numbersign" xMin="0" yMin="-200" xMax="1000" yMax="800">
      <contour>
        <pt x="0" y="800" on="1"/>
        <pt x="1000" y="800" on="1"/>
        <pt x="1000" y="-200" on="1"/>
        <pt x="0" y="-200" on="1"/>
      </contour>
    </TTGlyph>
    <TTGlyph name="o" xMin="0" yMin="-200" xMax="1000" yMax="800">
      <contour>
        <pt x="0" y="800" on="1"/>
        <pt x="1000" y="800" on="1"/>
        <pt x="1000" y="-200" on="1"/>
        <pt x="0" y="-200" on="1"/>
      </contour>
    </TTGlyph>
    <TTGlyph name="oacute" xMin="0" yMin="-200" xMax="1000" yMax="800">
      <contour>
        <pt x="0" y="800" on="1"/>
        <pt x="1000" y="800" on="1"/>
        <pt x="1000" y="-200" on="1"/>
        <pt x="0" y="-200" on="1"/>
      </contour>
    </TTGlyph>
    <TTGlyph name="ocircumflex" xMin="0" yMin="-200" xMax="1000" yMax="800">
      <contour>
        <pt x="0" y="800" on="1"/>
        <pt x="1000" y="800" on="1"/>
        <pt x="1000" y="-200" on="1"/>
        <pt x="0" y="-200" on="1"/>
      </contour>
    </TTGlyph>
    <TTGlyph name="odieresis" xMin="0" yMin="-200" xMax="1000" yMax="800">
      <contour>
        <pt x="0" y="800" on="1"/>
        <pt x="1000" y="800" on="1"/>
        <pt x="1000" y="-200" on="1"/>
        <pt x="0" y="-200" on="1"/>
      </contour>
    </TTGlyph>
    <TTGlyph name="oe" xMin="0" yMin="-200" xMax="1000" yMax="800">
      <contour>
        <pt x="0" y="800" on="1"/>
        <pt x="1000" y="800" on="1"/>
        <pt x="1000" y="-200" on="1"/>
        <pt x="0" y="-200" on="1"/>
      </contour>
    </TTGlyph>
    <TTGlyph name="ogonek" xMin="0" yMin="-200" xMax="1000" yMax="800">
      <contour>
        <pt x="0" y="800" on="1"/>
        <pt x="1000" y="800" on="1"/>
        <pt x="1000" y="-200" on="1"/>
        <pt x="0" y="-200" on="1"/>
      </contour>
    </TTGlyph>
    <TTGlyph name="ograve" xMin="0" yMin="-200" xMax="1000" yMax="800">
      <contour>
        <pt x="0" y="800" on="1"/>
        <pt x="1000" y="800" on="1"/>
        <pt x="1000" y="-200" on="1"/>
        <pt x="0" y="-200" on="1"/>
      </contour>
    </TTGlyph>
    <TTGlyph name="one" xMin="0" yMin="-200" xMax="1000" yMax="800">
      <contour>
        <pt x="0" y="800" on="1"/>
        <pt x="1000" y="800" on="1"/>
        <pt x="1000" y="-200" on="1"/>
        <pt x="0" y="-200" on="1"/>
      </contour>
    </TTGlyph>
    <TTGlyph name="onehalf" xMin="0" yMin="-200" xMax="1000" yMax="800">
      <contour>
        <pt x="0" y="800" on="1"/>
        <pt x="1000" y="800" on="1"/>
        <pt x="1000" y="-200" on="1"/>
        <pt x="0" y="-200" on="1"/>
      </contour>
    </TTGlyph>
    <TTGlyph name="onequarter" xMin="0" yMin="-200" xMax="1000" yMax="800">
      <contour>
        <pt x="0" y="800" on="1"/>
        <pt x="1000" y="800" on="1"/>
        <pt x="1000" y="-200" on="1"/>
        <pt x="0" y="-200" on="1"/>
      </contour>
    </TTGlyph>
    <TTGlyph name="onesuperior" xMin="0" yMin="-200" xMax="1000" yMax="800">
      <contour>
        <pt x="0" y="800" on="1"/>
        <pt x="1000" y="800" on="1"/>
        <pt x="1000" y="-200" on="1"/>
        <pt x="0" y="-200" on="1"/>
      </contour>
    </TTGlyph>
    <TTGlyph name="ordfeminine" xMin="0" yMin="-200" xMax="1000" yMax="800">
      <contour>
        <pt x="0" y="800" on="1"/>
        <pt x="1000" y="800" on="1"/>
        <pt x="1000" y="-200" on="1"/>
        <pt x="0" y="-200" on="1"/>
      </contour>
    </TTGlyph>
    <TTGlyph name="ordmasculine" xMin="0" yMin="-200" xMax="1000" yMax="800">
      <contour>
        <pt x="0" y="800" on="1"/>
        <pt x="1000" y="800" on="1"/>
        <pt x="1000" y="-200" on="1"/>
        <pt x="0" y="-200" on="1"/>
      </contour>
    </TTGlyph>
    <TTGlyph name="oslash" xMin="0" yMin="-200" xMax="1000" yMax="800">
      <contour>
        <pt x="0" y="800" on="1"/>
        <pt x="1000" y="800" on="1"/>
        <pt x="1000" y="-200" on="1"/>
        <pt x="0" y="-200" on="1"/>
      </contour>
    </TTGlyph>
    <TTGlyph name="otilde" xMin="0" yMin="-200" xMax="1000" yMax="800">
      <contour>
        <pt x="0" y="800" on="1"/>
        <pt x="1000" y="800" on="1"/>
        <pt x="1000" y="-200" on="1"/>
        <pt x="0" y="-200" on="1"/>
      </contour>
    </TTGlyph>
    <TTGlyph name="p" xMin="0" yMin="-200" xMax="1000" yMax="0">
      <contour>
        <pt x="0" y="0" on="1"/>
        <pt x="1000" y="0" on="1"/>
        <pt x="1000" y="-200" on="1"/>
        <pt x="0" y="-200" on="1"/>
      </contour>
    </TTGlyph>
    <TTGlyph name="paragraph" xMin="0" yMin="-200" xMax="1000" yMax="800">
      <contour>
        <pt x="0" y="800" on="1"/>
        <pt x="1000" y="800" on="1"/>
        <pt x="1000" y="-200" on="1"/>
        <pt x="0" y="-200" on="1"/>
      </contour>
    </TTGlyph>
    <TTGlyph name="parenleft" xMin="0" yMin="-200" xMax="1000" yMax="800">
      <contour>
        <pt x="0" y="800" on="1"/>
        <pt x="1000" y="800" on="1"/>
        <pt x="1000" y="-200" on="1"/>
        <pt x="0" y="-200" on="1"/>
      </contour>
    </TTGlyph>
    <TTGlyph name="parenright" xMin="0" yMin="-200" xMax="1000" yMax="800">
      <contour>
        <pt x="0" y="800" on="1"/>
        <pt x="1000" y="800" on="1"/>
        <pt x="1000" y="-200" on="1"/>
        <pt x="0" y="-200" on="1"/>
      </contour>
    </TTGlyph>
    <TTGlyph name="partialdiff" xMin="0" yMin="-200" xMax="1000" yMax="800">
      <contour>
        <pt x="0" y="800" on="1"/>
        <pt x="1000" y="800" on="1"/>
        <pt x="1000" y="-200" on="1"/>
        <pt x="0" y="-200" on="1"/>
      </contour>
    </TTGlyph>
    <TTGlyph name="percent" xMin="0" yMin="-200" xMax="1000" yMax="800">
      <contour>
        <pt x="0" y="800" on="1"/>
        <pt x="1000" y="800" on="1"/>
        <pt x="1000" y="-200" on="1"/>
        <pt x="0" y="-200" on="1"/>
      </contour>
    </TTGlyph>
    <TTGlyph name="period" xMin="0" yMin="-200" xMax="1000" yMax="800">
      <contour>
        <pt x="0" y="800" on="1"/>
        <pt x="1000" y="800" on="1"/>
        <pt x="1000" y="-200" on="1"/>
        <pt x="0" y="-200" on="1"/>
      </contour>
    </TTGlyph>
    <TTGlyph name="periodcentered" xMin="0" yMin="-200" xMax="1000" yMax="800">
      <contour>
        <pt x="0" y="800" on="1"/>
        <pt x="1000" y="800" on="1"/>
        <pt x="1000" y="-200" on="1"/>
        <pt x="0" y="-200" on="1"/>
      </contour>
    </TTGlyph>
    <TTGlyph name="perthousand" xMin="0" yMin="-200" xMax="1000" yMax="800">
      <contour>
        <pt x="0" y="800" on="1"/>
        <pt x="1000" y="800" on="1"/>
        <pt x="1000" y="-200" on="1"/>
        <pt x="0" y="-200" on="1"/>
      </contour>
    </TTGlyph>
    <TTGlyph name="pi" xMin="0" yMin="-200" xMax="1000" yMax="800">
      <contour>
        <pt x="0" y="800" on="1"/>
        <pt x="1000" y="800" on="1"/>
        <pt x="1000" y="-200" on="1"/>
        <pt x="0" y="-200" on="1"/>
      </contour>
    </TTGlyph>
    <TTGlyph name="plus" xMin="0" yMin="-200" xMax="1000" yMax="800">
      <contour>
        <pt x="0" y="800" on="1"/>
        <pt x="1000" y="800" on="1"/>
        <pt x="1000" y="-200" on="1"/>
        <pt x="0" y="-200" on="1"/>
      </contour>
    </TTGlyph>
    <TTGlyph name="plusminus" xMin="0" yMin="-200" xMax="1000" yMax="800">
      <contour>
        <pt x="0" y="800" on="1"/>
        <pt x="1000" y="800" on="1"/>
        <pt x="1000" y="-200" on="1"/>
        <pt x="0" y="-200" on="1"/>
      </contour>
    </TTGlyph>
    <TTGlyph name="product" xMin="0" yMin="-200" xMax="1000" yMax="800">
      <contour>
        <pt x="0" y="800" on="1"/>
        <pt x="1000" y="800" on="1"/>
        <pt x="1000" y="-200" on="1"/>
        <pt x="0" y="-200" on="1"/>
      </contour>
    </TTGlyph>
    <TTGlyph name="q" xMin="0" yMin="-200" xMax="1000" yMax="800">
      <contour>
        <pt x="0" y="800" on="1"/>
        <pt x="1000" y="800" on="1"/>
        <pt x="1000" y="-200" on="1"/>
        <pt x="0" y="-200" on="1"/>
      </contour>
    </TTGlyph>
    <TTGlyph name="question" xMin="0" yMin="-200" xMax="1000" yMax="800">
      <contour>
        <pt x="0" y="800" on="1"/>
        <pt x="1000" y="800" on="1"/>
        <pt x="1000" y="-200" on="1"/>
        <pt x="0" y="-200" on="1"/>
      </contour>
    </TTGlyph>
    <TTGlyph name="questiondown" xMin="0" yMin="-200" xMax="1000" yMax="800">
      <contour>
        <pt x="0" y="800" on="1"/>
        <pt x="1000" y="800" on="1"/>
        <pt x="1000" y="-200" on="1"/>
        <pt x="0" y="-200" on="1"/>
      </contour>
    </TTGlyph>
    <TTGlyph name="quotedbl" xMin="0" yMin="-200" xMax="1000" yMax="800">
      <contour>
        <pt x="0" y="800" on="1"/>
        <pt x="1000" y="800" on="1"/>
        <pt x="1000" y="-200" on="1"/>
        <pt x="0" y="-200" on="1"/>
      </contour>
    </TTGlyph>
    <TTGlyph name="quotedblbase" xMin="0" yMin="-200" xMax="1000" yMax="800">
      <contour>
        <pt x="0" y="800" on="1"/>
        <pt x="1000" y="800" on="1"/>
        <pt x="1000" y="-200" on="1"/>
        <pt x="0" y="-200" on="1"/>
      </contour>
    </TTGlyph>
    <TTGlyph name="quotedblleft" xMin="0" yMin="-200" xMax="1000" yMax="800">
      <contour>
        <pt x="0" y="800" on="1"/>
        <pt x="1000" y="800" on="1"/>
        <pt x="1000" y="-200" on="1"/>
        <pt x="0" y="-200" on="1"/>
      </contour>
    </TTGlyph>
    <TTGlyph name="quotedblright" xMin="0" yMin="-200" xMax="1000" yMax="800">
      <contour>
        <pt x="0" y="800" on="1"/>
        <pt x="1000" y="800" on="1"/>
        <pt x="1000" y="-200" on="1"/>
        <pt x="0" y="-200" on="1"/>
      </contour>
    </TTGlyph>
    <TTGlyph name="quoteleft" xMin="0" yMin="-200" xMax="1000" yMax="800">
      <contour>
        <pt x="0" y="800" on="1"/>
        <pt x="1000" y="800" on="1"/>
        <pt x="1000" y="-200" on="1"/>
        <pt x="0" y="-200" on="1"/>
      </contour>
    </TTGlyph>
    <TTGlyph name="quoteright" xMin="0" yMin="-200" xMax="1000" yMax="800">
      <contour>
        <pt x="0" y="800" on="1"/>
        <pt x="1000" y="800" on="1"/>
        <pt x="1000" y="-200" on="1"/>
        <pt x="0" y="-200" on="1"/>
      </contour>
    </TTGlyph>
    <TTGlyph name="quotesinglbase" xMin="0" yMin="-200" xMax="1000" yMax="800">
      <contour>
        <pt x="0" y="800" on="1"/>
        <pt x="1000" y="800" on="1"/>
        <pt x="1000" y="-200" on="1"/>
        <pt x="0" y="-200" on="1"/>
      </contour>
    </TTGlyph>
    <TTGlyph name="r" xMin="0" yMin="-200" xMax="1000" yMax="800">
      <contour>
        <pt x="0" y="800" on="1"/>
        <pt x="1000" y="800" on="1"/>
        <pt x="1000" y="-200" on="1"/>
        <pt x="0" y="-200" on="1"/>
      </contour>
    </TTGlyph>
    <TTGlyph name="radical" xMin="0" yMin="-200" xMax="1000" yMax="800">
      <contour>
        <pt x="0" y="800" on="1"/>
        <pt x="1000" y="800" on="1"/>
        <pt x="1000" y="-200" on="1"/>
        <pt x="0" y="-200" on="1"/>
      </contour>
    </TTGlyph>
    <TTGlyph name="registered" xMin="0" yMin="-200" xMax="1000" yMax="800">
      <contour>
        <pt x="0" y="800" on="1"/>
        <pt x="1000" y="800" on="1"/>
        <pt x="1000" y="-200" on="1"/>
        <pt x="0" y="-200" on="1"/>
      </contour>
    </TTGlyph>
    <TTGlyph name="ring" xMin="0" yMin="-200" xMax="1000" yMax="800">
      <contour>
        <pt x="0" y="800" on="1"/>
        <pt x="1000" y="800" on="1"/>
        <pt x="1000" y="-200" on="1"/>
        <pt x="0" y="-200" on="1"/>
      </contour>
    </TTGlyph>
    <TTGlyph name="s" xMin="0" yMin="-200" xMax="1000" yMax="800">
      <contour>
        <pt x="0" y="800" on="1"/>
        <pt x="1000" y="800" on="1"/>
        <pt x="1000" y="-200" on="1"/>
        <pt x="0" y="-200" on="1"/>
      </contour>
    </TTGlyph>
    <TTGlyph name="section" xMin="0" yMin="-200" xMax="1000" yMax="800">
      <contour>
        <pt x="0" y="800" on="1"/>
        <pt x="1000" y="800" on="1"/>
        <pt x="1000" y="-200" on="1"/>
        <pt x="0" y="-200" on="1"/>
      </contour>
    </TTGlyph>
    <TTGlyph name="semicolon" xMin="0" yMin="-200" xMax="1000" yMax="800">
      <contour>
        <pt x="0" y="800" on="1"/>
        <pt x="1000" y="800" on="1"/>
        <pt x="1000" y="-200" on="1"/>
        <pt x="0" y="-200" on="1"/>
      </contour>
    </TTGlyph>
    <TTGlyph name="seven" xMin="0" yMin="-200" xMax="1000" yMax="800">
      <contour>
        <pt x="0" y="800" on="1"/>
        <pt x="1000" y="800" on="1"/>
        <pt x="1000" y="-200" on="1"/>
        <pt x="0" y="-200" on="1"/>
      </contour>
    </TTGlyph>
    <TTGlyph name="six" xMin="0" yMin="-200" xMax="1000" yMax="800">
      <contour>
        <pt x="0" y="800" on="1"/>
        <pt x="1000" y="800" on="1"/>
        <pt x="1000" y="-200" on="1"/>
        <pt x="0" y="-200" on="1"/>
      </contour>
    </TTGlyph>
    <TTGlyph name="slash" xMin="0" yMin="-200" xMax="1000" yMax="800">
      <contour>
        <pt x="0" y="800" on="1"/>
        <pt x="1000" y="800" on="1"/>
        <pt x="1000" y="-200" on="1"/>
        <pt x="0" y="-200" on="1"/>
      </contour>
    </TTGlyph>
    <TTGlyph name="sterling" xMin="0" yMin="-200" xMax="1000" yMax="800">
      <contour>
        <pt x="0" y="800" on="1"/>
        <pt x="1000" y="800" on="1"/>
        <pt x="1000" y="-200" on="1"/>
        <pt x="0" y="-200" on="1"/>
      </contour>
    </TTGlyph>
    <TTGlyph name="summation" xMin="0" yMin="-200" xMax="1000" yMax="800">
      <contour>
        <pt x="0" y="800" on="1"/>
        <pt x="1000" y="800" on="1"/>
        <pt x="1000" y="-200" on="1"/>
        <pt x="0" y="-200" on="1"/>
      </contour>
    </TTGlyph>
    <TTGlyph name="t" xMin="0" yMin="-200" xMax="1000" yMax="800">
      <contour>
        <pt x="0" y="800" on="1"/>
        <pt x="1000" y="800" on="1"/>
        <pt x="1000" y="-200" on="1"/>
        <pt x="0" y="-200" on="1"/>
      </contour>
    </TTGlyph>
    <TTGlyph name="thorn" xMin="0" yMin="-200" xMax="1000" yMax="800">
      <contour>
        <pt x="0" y="800" on="1"/>
        <pt x="1000" y="800" on="1"/>
        <pt x="1000" y="-200" on="1"/>
        <pt x="0" y="-200" on="1"/>
      </contour>
    </TTGlyph>
    <TTGlyph name="three" xMin="0" yMin="-200" xMax="1000" yMax="800">
      <contour>
        <pt x="0" y="800" on="1"/>
        <pt x="1000" y="800" on="1"/>
        <pt x="1000" y="-200" on="1"/>
        <pt x="0" y="-200" on="1"/>
      </contour>
    </TTGlyph>
    <TTGlyph name="threequarters" xMin="0" yMin="-200" xMax="1000" yMax="800">
      <contour>
        <pt x="0" y="800" on="1"/>
        <pt x="1000" y="800" on="1"/>
        <pt x="1000" y="-200" on="1"/>
        <pt x="0" y="-200" on="1"/>
      </contour>
    </TTGlyph>
    <TTGlyph name="threesuperior" xMin="0" yMin="-200" xMax="1000" yMax="800">
      <contour>
        <pt x="0" y="800" on="1"/>
        <pt x="1000" y="800" on="1"/>
        <pt x="1000" y="-200" on="1"/>
        <pt x="0" y="-200" on="1"/>
      </contour>
    </TTGlyph>
    <TTGlyph name="tilde" xMin="0" yMin="-200" xMax="1000" yMax="800">
      <contour>
        <pt x="0" y="800" on="1"/>
        <pt x="1000" y="800" on="1"/>
        <pt x="1000" y="-200" on="1"/>
        <pt x="0" y="-200" on="1"/>
      </contour>
    </TTGlyph>
    <TTGlyph name="trademark" xMin="0" yMin="-200" xMax="1000" yMax="800">
      <contour>
        <pt x="0" y="800" on="1"/>
        <pt x="1000" y="800" on="1"/>
        <pt x="1000" y="-200" on="1"/>
        <pt x="0" y="-200" on="1"/>
      </contour>
    </TTGlyph>
    <TTGlyph name="two" xMin="0" yMin="-200" xMax="1000" yMax="800">
      <contour>
        <pt x="0" y="800" on="1"/>
        <pt x="1000" y="800" on="1"/>
        <pt x="1000" y="-200" on="1"/>
        <pt x="0" y="-200" on="1"/>
      </contour>
    </TTGlyph>
    <TTGlyph name="twosuperior" xMin="0" yMin="-200" xMax="1000" yMax="800">
      <contour>
        <pt x="0" y="800" on="1"/>
        <pt x="1000" y="800" on="1"/>
        <pt x="1000" y="-200" on="1"/>
        <pt x="0" y="-200" on="1"/>
      </contour>
    </TTGlyph>
    <TTGlyph name="u" xMin="0" yMin="-200" xMax="1000" yMax="800">
      <contour>
        <pt x="0" y="800" on="1"/>
        <pt x="1000" y="800" on="1"/>
        <pt x="1000" y="-200" on="1"/>
        <pt x="0" y="-200" on="1"/>
      </contour>
    </TTGlyph>
    <TTGlyph name="uacute" xMin="0" yMin="-200" xMax="1000" yMax="800">
      <contour>
        <pt x="0" y="800" on="1"/>
        <pt x="1000" y="800" on="1"/>
        <pt x="1000" y="-200" on="1"/>
        <pt x="0" y="-200" on="1"/>
      </contour>
    </TTGlyph>
    <TTGlyph name="ucircumflex" xMin="0" yMin="-200" xMax="1000" yMax="800">
      <contour>
        <pt x="0" y="800" on="1"/>
        <pt x="1000" y="800" on="1"/>
        <pt x="1000" y="-200" on="1"/>
        <pt x="0" y="-200" on="1"/>
      </contour>
    </TTGlyph>
    <TTGlyph name="udieresis" xMin="0" yMin="-200" xMax="1000" yMax="800">
      <contour>
        <pt x="0" y="800" on="1"/>
        <pt x="1000" y="800" on="1"/>
        <pt x="1000" y="-200" on="1"/>
        <pt x="0" y="-200" on="1"/>
      </contour>
    </TTGlyph>
    <TTGlyph name="ugrave" xMin="0" yMin="-200" xMax="1000" yMax="800">
      <contour>
        <pt x="0" y="800" on="1"/>
        <pt x="1000" y="800" on="1"/>
        <pt x="1000" y="-200" on="1"/>
        <pt x="0" y="-200" on="1"/>
      </contour>
    </TTGlyph>
    <TTGlyph name="underscore" xMin="0" yMin="-200" xMax="1000" yMax="800">
      <contour>
        <pt x="0" y="800" on="1"/>
        <pt x="1000" y="800" on="1"/>
        <pt x="1000" y="-200" on="1"/>
        <pt x="0" y="-200" on="1"/>
      </contour>
    </TTGlyph>
    <TTGlyph name="uni03A5" xMin="200" yMin="-200" xMax="400" yMax="800">
      <contour>
        <pt x="200" y="800" on="1"/>
        <pt x="400" y="800" on="1"/>
        <pt x="400" y="-200" on="1"/>
        <pt x="200" y="-200" on="1"/>
      </contour>
    </TTGlyph>
    <TTGlyph name="uni03A7" xMin="0" yMin="400" xMax="1000" yMax="600">
      <contour>
        <pt x="0" y="600" on="1"/>
        <pt x="1000" y="600" on="1"/>
        <pt x="1000" y="400" on="1"/>
        <pt x="0" y="400" on="1"/>
      </contour>
    </TTGlyph>
    <TTGlyph name="uni3007" xMin="0" yMin="-200" xMax="1000" yMax="800">
      <contour>
        <pt x="0" y="800" on="1"/>
        <pt x="1000" y="800" on="1"/>
        <pt x="1000" y="-200" on="1"/>
        <pt x="0" y="-200" on="1"/>
      </contour>
    </TTGlyph>
    <TTGlyph name="uni4E00" xMin="0" yMin="-200" xMax="1000" yMax="800">
      <contour>
        <pt x="0" y="800" on="1"/>
        <pt x="1000" y="800" on="1"/>
        <pt x="1000" y="-200" on="1"/>
        <pt x="0" y="-200" on="1"/>
      </contour>
    </TTGlyph>
    <TTGlyph name="uni4E03" xMin="0" yMin="-200" xMax="1000" yMax="800">
      <contour>
        <pt x="0" y="800" on="1"/>
        <pt x="1000" y="800" on="1"/>
        <pt x="1000" y="-200" on="1"/>
        <pt x="0" y="-200" on="1"/>
      </contour>
    </TTGlyph>
    <TTGlyph name="uni4E09" xMin="0" yMin="-200" xMax="1000" yMax="800">
      <contour>
        <pt x="0" y="800" on="1"/>
        <pt x="1000" y="800" on="1"/>
        <pt x="1000" y="-200" on="1"/>
        <pt x="0" y="-200" on="1"/>
      </contour>
    </TTGlyph>
    <TTGlyph name="uni4E5D" xMin="0" yMin="-200" xMax="1000" yMax="800">
      <contour>
        <pt x="0" y="800" on="1"/>
        <pt x="1000" y="800" on="1"/>
        <pt x="1000" y="-200" on="1"/>
        <pt x="0" y="-200" on="1"/>
      </contour>
    </TTGlyph>
    <TTGlyph name="uni4E8C" xMin="0" yMin="-200" xMax="1000" yMax="800">
      <contour>
        <pt x="0" y="800" on="1"/>
        <pt x="1000" y="800" on="1"/>
        <pt x="1000" y="-200" on="1"/>
        <pt x="0" y="-200" on="1"/>
      </contour>
    </TTGlyph>
    <TTGlyph name="uni4E94" xMin="0" yMin="-200" xMax="1000" yMax="800">
      <contour>
        <pt x="0" y="800" on="1"/>
        <pt x="1000" y="800" on="1"/>
        <pt x="1000" y="-200" on="1"/>
        <pt x="0" y="-200" on="1"/>
      </contour>
    </TTGlyph>
    <TTGlyph name="uni516B" xMin="0" yMin="-200" xMax="1000" yMax="800">
      <contour>
        <pt x="0" y="800" on="1"/>
        <pt x="1000" y="800" on="1"/>
        <pt x="1000" y="-200" on="1"/>
        <pt x="0" y="-200" on="1"/>
      </contour>
    </TTGlyph>
    <TTGlyph name="uni516D" xMin="0" yMin="-200" xMax="1000" yMax="800">
      <contour>
        <pt x="0" y="800" on="1"/>
        <pt x="1000" y="800" on="1"/>
        <pt x="1000" y="-200" on="1"/>
        <pt x="0" y="-200" on="1"/>
      </contour>
    </TTGlyph>
    <TTGlyph name="uni5341" xMin="0" yMin="-200" xMax="1000" yMax="800">
      <contour>
        <pt x="0" y="800" on="1"/>
        <pt x="1000" y="800" on="1"/>
        <pt x="1000" y="-200" on="1"/>
        <pt x="0" y="-200" on="1"/>
      </contour>
    </TTGlyph>
    <TTGlyph name="uni56D7" xMin="0" yMin="-200" xMax="1000" yMax="800">
      <contour>
        <pt x="0" y="800" on="1"/>
        <pt x="1000" y="800" on="1"/>
        <pt x="1000" y="-200" on="1"/>
        <pt x="0" y="-200" on="1"/>
      </contour>
    </TTGlyph>
    <TTGlyph name="uni56DB" xMin="0" yMin="-200" xMax="1000" yMax="800">
      <contour>
        <pt x="0" y="800" on="1"/>
        <pt x="1000" y="800" on="1"/>
        <pt x="1000" y="-200" on="1"/>
        <pt x="0" y="-200" on="1"/>
      </contour>
    </TTGlyph>
    <TTGlyph name="uni571F" xMin="0" yMin="-200" xMax="1000" yMax="800">
      <contour>
        <pt x="0" y="800" on="1"/>
        <pt x="1000" y="800" on="1"/>
        <pt x="1000" y="-200" on="1"/>
        <pt x="0" y="-200" on="1"/>
      </contour>
    </TTGlyph>
    <TTGlyph name="uni6728" xMin="0" yMin="-200" xMax="1000" yMax="800">
      <contour>
        <pt x="0" y="800" on="1"/>
        <pt x="1000" y="800" on="1"/>
        <pt x="1000" y="-200" on="1"/>
        <pt x="0" y="-200" on="1"/>
      </contour>
    </TTGlyph>
    <TTGlyph name="uni6A2A" xMin="0" yMin="400" xMax="1000" yMax="600">
      <contour>
        <pt x="0" y="600" on="1"/>
        <pt x="1000" y="600" on="1"/>
        <pt x="1000" y="400" on="1"/>
        <pt x="0" y="400" on="1"/>
      </contour>
    </TTGlyph>
    <TTGlyph name="uni6A6B" xMin="0" yMin="400" xMax="1000" yMax="600">
      <contour>
        <pt x="0" y="600" on="1"/>
        <pt x="1000" y="600" on="1"/>
        <pt x="1000" y="400" on="1"/>
        <pt x="0" y="400" on="1"/>
      </contour>
    </TTGlyph>
    <TTGlyph name="uni6C34" xMin="0" yMin="-200" xMax="1000" yMax="800">
      <contour>
        <pt x="0" y="800" on="1"/>
        <pt x="1000" y="800" on="1"/>
        <pt x="1000" y="-200" on="1"/>
        <pt x="0" y="-200" on="1"/>
      </contour>
    </TTGlyph>
    <TTGlyph name="uni706B" xMin="0" yMin="-200" xMax="1000" yMax="800">
      <contour>
        <pt x="0" y="800" on="1"/>
        <pt x="1000" y="800" on="1"/>
        <pt x="1000" y="-200" on="1"/>
        <pt x="0" y="-200" on="1"/>
      </contour>
    </TTGlyph>
    <TTGlyph name="uni7E26" xMin="200" yMin="-200" xMax="400" yMax="800">
      <contour>
        <pt x="200" y="800" on="1"/>
        <pt x="400" y="800" on="1"/>
        <pt x="400" y="-200" on="1"/>
        <pt x="200" y="-200" on="1"/>
      </contour>
    </TTGlyph>
    <TTGlyph name="uni7E31" xMin="200" yMin="-200" xMax="400" yMax="800">
      <contour>
        <pt x="200" y="800" on="1"/>
        <pt x="400" y="800" on="1"/>
        <pt x="400" y="-200" on="1"/>
        <pt x="200" y="-200" on="1"/>
      </contour>
    </TTGlyph>
    <TTGlyph name="uni7EB5" xMin="200" yMin="-200" xMax="400" yMax="800">
      <contour>
        <pt x="200" y="800" on="1"/>
        <pt x="400" y="800" on="1"/>
        <pt x="400" y="-200" on="1"/>
        <pt x="200" y="-200" on="1"/>
      </contour>
    </TTGlyph>
    <TTGlyph name="uni91D1" xMin="0" yMin="-200" xMax="1000" yMax="800">
      <contour>
        <pt x="0" y="800" on="1"/>
        <pt x="1000" y="800" on="1"/>
        <pt x="1000" y="-200" on="1"/>
        <pt x="0" y="-200" on="1"/>
      </contour>
    </TTGlyph>
    <TTGlyph name="v" xMin="0" yMin="-200" xMax="1000" yMax="800">
      <contour>
        <pt x="0" y="800" on="1"/>
        <pt x="1000" y="800" on="1"/>
        <pt x="1000" y="-200" on="1"/>
        <pt x="0" y="-200" on="1"/>
      </contour>
    </TTGlyph>
    <TTGlyph name="w" xMin="0" yMin="-200" xMax="1000" yMax="800">
      <contour>
        <pt x="0" y="800" on="1"/>
        <pt x="1000" y="800" on="1"/>
        <pt x="1000" y="-200" on="1"/>
        <pt x="0" y="-200" on="1"/>
      </contour>
    </TTGlyph>
    <TTGlyph name="x" xMin="0" yMin="-200" xMax="1000" yMax="800">
      <contour>
        <pt x="0" y="800" on="1"/>
        <pt x="1000" y="800" on="1"/>
        <pt x="1000" y="-200" on="1"/>
        <pt x="0" y="-200" on="1"/>
      </contour>
    </TTGlyph>
    <TTGlyph name="y" xMin="0" yMin="-200" xMax="1000" yMax="800">
      <contour>
        <pt x="0" y="800" on="1"/>
        <pt x="1000" y="800" on="1"/>
        <pt x="1000" y="-200" on="1"/>
        <pt x="0" y="-200" on="1"/>
      </contour>
    </TTGlyph>
    <TTGlyph name="yacute" xMin="0" yMin="-200" xMax="1000" yMax="800">
      <contour>
        <pt x="0" y="800" on="1"/>
        <pt x="1000" y="800" on="1"/>
        <pt x="1000" y="-200" on="1"/>
        <pt x="0" y="-200" on="1"/>
      </contour>
    </TTGlyph>
    <TTGlyph name="ydieresis" xMin="0" yMin="-200" xMax="1000" yMax="800">
      <contour>
        <pt x="0" y="800" on="1"/>
        <pt x="1000" y="800" on="1"/>
        <pt x="1000" y="-200" on="1"/>
        <pt x="0" y="-200" on="1"/>
      </contour>
    </TTGlyph>
    <TTGlyph name="yen" xMin="0" yMin="-200" xMax="1000" yMax="800">
      <contour>
        <pt x="0" y="800" on="1"/>
        <pt x="1000" y="800" on="1"/>
        <pt x="1000" y="-200" on="1"/>
        <pt x="0" y="-200" on="1"/>
      </contour>
    </TTGlyph>
    <TTGlyph name="z" xMin="0" yMin="-200" xMax="1000" yMax="800">
      <contour>
        <pt x="0" y="800" on="1"/>
        <pt x="1000" y="800" on="1"/>
        <pt x="1000" y="-200" on="1"/>
        <pt x="0" y="-200" on="1"/>
      </contour>
    </TTGlyph>
    <TTGlyph name="zero" xMin="0" yMin="-200" xMax="1000" yMax="800">
      <contour>
        <pt x="0" y="800" on="1"/>
        <pt x="1000" y="800" on="1"/>
        <pt x="1000" y="-200" on="1"/>
        <pt x="0" y="-200" on="1"/>
      </contour>
    </TTGlyph>
</ttFont>
